{"title":"The Pianist*2002*[HDDVD][1080p][ENG, POL]","uid":5886027,"size":13421246734,"categoryP":"video","categoryS":"hd___movies","magnet":"?xt=urn:btih:0637ebda1c092a663b672d384652ab11e8589c8b&amp;dn=The+Pianist%2A2002%2A%5BHDDVD%5D%5B1080p%5D%5BENG%2C+POL%5D&amp;tr=udp%3A%2F%2Ftracker.openbittorrent.com%3A80&amp;tr=udp%3A%2F%2Fopen.demonii.com%3A1337&amp;tr=udp%3A%2F%2Ftracker.coppersurfer.tk%3A6969&amp;tr=udp%3A%2F%2Fexodus.desync.com%3A6969","seeders":0,"leechers":4,"uploader":"albedo040","files":1,"time":1287055108,"description":"The Pianist*2002*[HDDVD][1080p][ENG, POL]\n\nGeneral information:\nCountry: France, Poland, Germany, UK \nRelease: 24 May 2002 (Cannes Film Festival)\nGenre: Biography, Drama, War \nDirector: Roman Polanski\nScreenplay: Ronald Harwood, Wladyslaw Szpilman (based on the book by)\nOriginal Music: Wojciech Kilar\nCinematography by: Pawel Edelman\nDuration: 2h 28mn\nLanguage: English, Polish\nSubtitles: English, Polish\nRating: 8.4/10 - 64997 votes\n\nCast:\nAdrien Brody  ...  Wladyslaw Szpilman  \nEmilia Fox  ...  Dorota  \nMichal Zebrowski  ...  Jurek  \nEd Stoppard  ...  Henryk  \nMaureen Lipman  ...  Mother  \nFrank Finlay  ...  Father  \nJessica Kate Meyer  ...  Halina  \nJulia Rayner  ...  Regina  \nWanja Mues  ...  SS Slapping Father  \nRichard Ridings  ...  Mr. Lipa  \nNomi Sharron  ...  Feather Woman  \nAnthony Milner  ...  Man Waiting to Cross  \nLucy Skeaping  ...  Street Musician (as Lucie Skeaping)  \nRoddy Skeaping  ...  Street Musician  \nBen Harlan  ...  Street Musician  \n\nPlot:\nA Polish Jewish musician struggles to survive the destruction of the Warsaw ghetto of World War II. \n\nSpecifications:\nGeneral\nFormat                           : Matroska\nOverall bit rate                 : 12.0 Mbps\n\nVideo\nFormat                           : AVC\nFormat/Info                      : Advanced Video Codec\nFormat profile                   : &lt;a class=&quot;__cf_email__&quot; href=&quot;/cdn-cgi/l/email-protection&quot; data-cfemail=&quot;85cdece2edc5c9b1abb4&quot;&gt;[email&amp;#160;protected]&lt;/a&gt;&lt;script cf-hash='f9e31' type=&quot;text/javascript&quot;&gt;\n/* &lt;![CDATA[ */!function(){try{var t=&quot;currentScript&quot;in document?document.currentScript:function(){for(var t=document.getElementsByTagName(&quot;script&quot;),e=t.length;e--;)if(t[e].getAttribute(&quot;cf-hash&quot;))return t[e]}();if(t&amp;&amp;t.previousSibling){var e,r,n,i,c=t.previousSibling,a=c.getAttribute(&quot;data-cfemail&quot;);if(a){for(e=&quot;&quot;,r=parseInt(a.substr(0,2),16),n=2;a.length-n;n+=2)i=parseInt(a.substr(n,2),16)^r,e+=String.fromCharCode(i);e=document.createTextNode(e),c.parentNode.replaceChild(e,c)}}}catch(u){}}();/* ]]&gt; */&lt;/script&gt;\nFormat settings, CABAC           : Yes\nFormat settings, ReFrames        : 4 frames\nMuxing mode                      : Container profile=&lt;a class=&quot;__cf_email__&quot; href=&quot;/cdn-cgi/l/email-protection&quot; data-cfemail=&quot;6c39020702031b022c58425d&quot;&gt;[email&amp;#160;protected]&lt;/a&gt;&lt;script cf-hash='f9e31' type=&quot;text/javascript&quot;&gt;\n/* &lt;![CDATA[ */!function(){try{var t=&quot;currentScript&quot;in document?document.currentScript:function(){for(var t=document.getElementsByTagName(&quot;script&quot;),e=t.length;e--;)if(t[e].getAttribute(&quot;cf-hash&quot;))return t[e]}();if(t&amp;&amp;t.previousSibling){var e,r,n,i,c=t.previousSibling,a=c.getAttribute(&quot;data-cfemail&quot;);if(a){for(e=&quot;&quot;,r=parseInt(a.substr(0,2),16),n=2;a.length-n;n+=2)i=parseInt(a.substr(n,2),16)^r,e+=String.fromCharCode(i);e=document.createTextNode(e),c.parentNode.replaceChild(e,c)}}}catch(u){}}();/* ]]&gt; */&lt;/script&gt;\nCodec ID                         : V_MPEG4/ISO/AVC\nBit rate                         : 10.3 Mbps\nWidth                            : 1 920 pixels\nHeight                           : 1 040 pixels\nDisplay aspect ratio             : 16:9\nFrame rate                       : 23.976 fps\n\nAudio 1\nFormat                           : DTS\nFormat/Info                      : Digital Theater Systems\nCodec ID                         : A_DTS\nBit rate mode                    : Constant\nBit rate                         : 1 510 Kbps\nChannel(s)                       : 6 channels\nChannel positions                : Front: L C R, Side: L R, LFE\nSampling rate                    : 48.0 KHz\nBit depth                        : 24 bits\nStream size                      : 1.57 GiB (13%)\nTitle                            : English\n\nAudio 2\nFormat                           : AC-3\nFormat/Info                      : Audio Coding 3\nMode extension                   : CM (complete main)\nCodec ID                         : A_AC3\nBit rate mode                    : Constant\nBit rate                         : 192 Kbps\nChannel(s)                       : 2 channels\nChannel positions                : Front: L R\nSampling rate                    : 48.0 KHz\nStream size                      : 204 MiB (2%)\nTitle                            : Polish\nLanguage                         : Polish\n\nText 1\nFormat                           : UTF-8\nCodec ID                         : S_TEXT/UTF8\nCodec ID/Info                    : UTF-8 Plain Text\nTitle                            : English\n\nText 2\nID                               : 5\nFormat                           : UTF-8\nCodec ID                         : S_TEXT/UTF8\nCodec ID/Info                    : UTF-8 Plain Text\nTitle                            : Polish\nLanguage                         : Polish\n","torrent":{"xt":"urn:btih:0637ebda1c092a663b672d384652ab11e8589c8b","amp;dn":"The+Pianist%2A2002%2A%5BHDDVD%5D%5B1080p%5D%5BENG%2C+POL%5D","amp;tr":["udp%3A%2F%2Ftracker.openbittorrent.com%3A80","udp%3A%2F%2Fopen.demonii.com%3A1337","udp%3A%2F%2Ftracker.coppersurfer.tk%3A6969","udp%3A%2F%2Fexodus.desync.com%3A6969"],"infoHash":"0637ebda1c092a663b672d384652ab11e8589c8b","infoHashBuffer":{"type":"Buffer","data":[6,55,235,218,28,9,42,102,59,103,45,56,70,82,171,17,232,88,156,139]},"announce":[],"urlList":[]}}